<?xml version="1.0" encoding="utf-8"?>
<!-- Generator: Adobe Illustrator 17.0.0, SVG Export Plug-In . SVG Version: 6.00 Build 0)  -->
<!DOCTYPE svg PUBLIC "-//W3C//DTD SVG 1.1//EN" "http://www.w3.org/Graphics/SVG/1.1/DTD/svg11.dtd">
<svg version="1.1" id="Layer_1" xmlns="http://www.w3.org/2000/svg" xmlns:xlink="http://www.w3.org/1999/xlink" x="0px" y="0px"
	 width="100px" height="100px" viewBox="0 0 100 100" style="enable-background:new 0 0 100 100;" xml:space="preserve">
<g>
	<path d="M48,10c1.3,0,2.6,0,3.9,0c0.1,0,0.3,0.1,0.4,0.1c3.9,0.2,7.6,1,11.2,2.3c9,3.3,16,9.1,20.9,17.3c3,4.9,4.7,10.3,5.3,16
		c0.1,0.8,0.2,1.6,0.2,2.3c0,1.3,0,2.6,0,3.9c0,0.2-0.1,0.3-0.1,0.5c-0.3,1.9-0.4,3.8-0.8,5.7C87,68.3,81.7,76.4,73.3,82.5
		c-5.7,4.1-12,6.5-19,7.3c-0.8,0.1-1.6,0.2-2.4,0.2c-1.3,0-2.6,0-3.9,0c-0.5-0.1-1.1-0.1-1.6-0.2c-3.9-0.3-7.7-1.2-11.4-2.7
		c-6.8-2.8-12.5-7.1-17-13c-4.4-5.8-7-12.4-7.8-19.7c-0.1-0.8-0.2-1.6-0.3-2.5c0-1.3,0-2.6,0-3.9c0.1-0.5,0.1-1,0.2-1.5
		c0.4-4.7,1.6-9.2,3.6-13.4c3.6-7.6,9.1-13.6,16.4-17.8c4.8-2.8,10-4.5,15.5-5C46.5,10.2,47.3,10.1,48,10z M50.3,85
		c15.9,0.3,32.4-11.7,34.6-30.8C87.2,34.5,73,17.3,54,15.3c-19.7-2.1-36.7,12.2-38.7,31.2c-1.9,19,11.2,33.1,24.5,36.8
		c0-9.4,0-18.8,0-28.3c-1.9,0-3.8,0-5.7,0c0-3.3,0-6.6,0-9.9c1.9,0,3.8,0,5.7,0c0-0.2,0-0.3,0-0.5c0-2,0-4,0-6
		c0-1.9,0.2-3.8,0.7-5.6c0.9-3.2,2.7-5.6,5.9-6.9c1.8-0.7,3.8-1,5.7-1c2.1-0.1,4.3,0,6.4,0c0.2,0,0.3,0,0.5,0c0,3.3,0,6.6,0,9.9
		c-0.2,0-0.4,0-0.5,0c-1.7,0-3.3,0-5,0c-1.2,0-2.1,0.5-2.7,1.5c-0.4,0.7-0.6,1.4-0.6,2.2c0,2,0,4.1,0,6.1c0,0.1,0,0.2,0,0.3
		c2.9,0,5.8,0,8.8,0c-0.5,3.3-1,6.6-1.5,9.9c-2.5,0-4.9,0-7.4,0C50.3,65,50.3,75,50.3,85z"/>
</g>
<g>
</g>
<g>
</g>
<g>
</g>
<g>
</g>
<g>
</g>
<g>
</g>
</svg>
